
<svg xmlns="http://www.w3.org/2000/svg" xmlns:xlink="http://www.w3.org/1999/xlink" x="0" y="0" width="701.3333740234375" height="301.3333435058594" style="
        width:701.3333740234375px;
        height:301.3333435058594px;
        background: transparent;
        fill: none;
">
        
        
        <svg xmlns="http://www.w3.org/2000/svg" class="role-diagram-draw-area" style="overflow: visible;"><g class="shapes-region" style="stroke: black; fill: none;"><g class="composite-shape"><path class="real" d=" M245.33,212.83 L260.83,197.33 L297,197.33 L297,233.5 L281.5,249 L245.33,249 Z" style="stroke-width: 1; stroke: rgb(255, 255, 255); stroke-opacity: 1; fill: rgb(0, 0, 0); fill-opacity: 1;"/><path class="real" d=" M297,197.33 L281.5,212.83 L245.33,212.83" style="stroke-width: 1; stroke: rgb(255, 255, 255); stroke-opacity: 1; fill: none; fill-opacity: 1;"/><path class="real" d=" M281.5,212.83 L281.5,249" style="stroke-width: 1; stroke: rgb(255, 255, 255); stroke-opacity: 1; fill: none; fill-opacity: 1;"/></g><g class="composite-shape"><path class="real" d=" M100.67,212.83 L116.17,197.33 L152.33,197.33 L152.33,233.5 L136.83,249 L100.67,249 Z" style="stroke-width: 1; stroke: rgb(255, 255, 255); stroke-opacity: 1; fill: rgb(0, 0, 0); fill-opacity: 1;"/><path class="real" d=" M152.33,197.33 L136.83,212.83 L100.67,212.83" style="stroke-width: 1; stroke: rgb(255, 255, 255); stroke-opacity: 1; fill: none; fill-opacity: 1;"/><path class="real" d=" M136.83,212.83 L136.83,249" style="stroke-width: 1; stroke: rgb(255, 255, 255); stroke-opacity: 1; fill: none; fill-opacity: 1;"/></g><g class="composite-shape"><path class="real" d=" M209.17,176.67 L224.67,161.17 L260.83,161.17 L260.83,197.33 L245.33,212.83 L209.17,212.83 Z" style="stroke-width: 1; stroke: rgb(255, 255, 255); stroke-opacity: 1; fill: rgb(0, 0, 0); fill-opacity: 1;"/><path class="real" d=" M260.83,161.17 L245.33,176.67 L209.17,176.67" style="stroke-width: 1; stroke: rgb(255, 255, 255); stroke-opacity: 1; fill: none; fill-opacity: 1;"/><path class="real" d=" M245.33,176.67 L245.33,212.83" style="stroke-width: 1; stroke: rgb(255, 255, 255); stroke-opacity: 1; fill: none; fill-opacity: 1;"/></g><g class="composite-shape"><path class="real" d=" M281.5,212.83 L297,197.33 L333.17,197.33 L333.17,233.5 L317.67,249 L281.5,249 Z" style="stroke-width: 1; stroke: rgb(255, 255, 255); stroke-opacity: 1; fill: rgb(126, 211, 33); fill-opacity: 1;"/><path class="real" d=" M333.17,197.33 L317.67,212.83 L281.5,212.83" style="stroke-width: 1; stroke: rgb(255, 255, 255); stroke-opacity: 1; fill: none; fill-opacity: 1;"/><path class="real" d=" M317.67,212.83 L317.67,249" style="stroke-width: 1; stroke: rgb(255, 255, 255); stroke-opacity: 1; fill: none; fill-opacity: 1;"/></g><g class="composite-shape"><path class="real" d=" M281.5,176.67 L297,161.17 L333.17,161.17 L333.17,197.33 L317.67,212.83 L281.5,212.83 Z" style="stroke-width: 1; stroke: rgb(255, 255, 255); stroke-opacity: 1; fill: rgb(126, 211, 33); fill-opacity: 1;"/><path class="real" d=" M333.17,161.17 L317.67,176.67 L281.5,176.67" style="stroke-width: 1; stroke: rgb(255, 255, 255); stroke-opacity: 1; fill: none; fill-opacity: 1;"/><path class="real" d=" M317.67,176.67 L317.67,212.83" style="stroke-width: 1; stroke: rgb(255, 255, 255); stroke-opacity: 1; fill: none; fill-opacity: 1;"/></g><g class="composite-shape"><path class="real" d=" M136.83,176.67 L152.33,161.17 L188.5,161.17 L188.5,197.33 L173,212.83 L136.83,212.83 Z" style="stroke-width: 1; stroke: rgb(255, 255, 255); stroke-opacity: 1; fill: rgb(0, 0, 0); fill-opacity: 1;"/><path class="real" d=" M188.5,161.17 L173,176.67 L136.83,176.67" style="stroke-width: 1; stroke: rgb(255, 255, 255); stroke-opacity: 1; fill: none; fill-opacity: 1;"/><path class="real" d=" M173,176.67 L173,212.83" style="stroke-width: 1; stroke: rgb(255, 255, 255); stroke-opacity: 1; fill: none; fill-opacity: 1;"/></g><g class="composite-shape"><path class="real" d=" M136.83,104.33 L152.33,88.83 L188.5,88.83 L188.5,125 L173,140.5 L136.83,140.5 Z" style="stroke-width: 1; stroke: rgb(255, 255, 255); stroke-opacity: 1; fill: rgb(0, 0, 0); fill-opacity: 1;"/><path class="real" d=" M188.5,88.83 L173,104.33 L136.83,104.33" style="stroke-width: 1; stroke: rgb(255, 255, 255); stroke-opacity: 1; fill: none; fill-opacity: 1;"/><path class="real" d=" M173,104.33 L173,140.5" style="stroke-width: 1; stroke: rgb(255, 255, 255); stroke-opacity: 1; fill: none; fill-opacity: 1;"/></g><g class="composite-shape"><path class="real" d=" M173,140.5 L188.5,125 L224.67,125 L224.67,161.17 L209.17,176.67 L173,176.67 Z" style="stroke-width: 1; stroke: rgb(255, 255, 255); stroke-opacity: 1; fill: rgb(0, 0, 0); fill-opacity: 1;"/><path class="real" d=" M224.67,125 L209.17,140.5 L173,140.5" style="stroke-width: 1; stroke: rgb(255, 255, 255); stroke-opacity: 1; fill: none; fill-opacity: 1;"/><path class="real" d=" M209.17,140.5 L209.17,176.67" style="stroke-width: 1; stroke: rgb(255, 255, 255); stroke-opacity: 1; fill: none; fill-opacity: 1;"/></g><g class="composite-shape"><path class="real" d=" M209.17,104.33 L224.67,88.83 L260.83,88.83 L260.83,125 L245.33,140.5 L209.17,140.5 Z" style="stroke-width: 1; stroke: rgb(255, 255, 255); stroke-opacity: 1; fill: rgb(0, 0, 0); fill-opacity: 1;"/><path class="real" d=" M260.83,88.83 L245.33,104.33 L209.17,104.33" style="stroke-width: 1; stroke: rgb(255, 255, 255); stroke-opacity: 1; fill: none; fill-opacity: 1;"/><path class="real" d=" M245.33,104.33 L245.33,140.5" style="stroke-width: 1; stroke: rgb(255, 255, 255); stroke-opacity: 1; fill: none; fill-opacity: 1;"/></g><g class="composite-shape"><path class="real" d=" M281.5,140.5 L297,125 L333.17,125 L333.17,161.17 L317.67,176.67 L281.5,176.67 Z" style="stroke-width: 1; stroke: rgb(255, 255, 255); stroke-opacity: 1; fill: rgb(126, 211, 33); fill-opacity: 1;"/><path class="real" d=" M333.17,125 L317.67,140.5 L281.5,140.5" style="stroke-width: 1; stroke: rgb(255, 255, 255); stroke-opacity: 1; fill: none; fill-opacity: 1;"/><path class="real" d=" M317.67,140.5 L317.67,176.67" style="stroke-width: 1; stroke: rgb(255, 255, 255); stroke-opacity: 1; fill: none; fill-opacity: 1;"/></g><g class="composite-shape"><path class="real" d=" M100.67,68.17 L116.17,52.67 L152.33,52.67 L152.33,88.83 L136.83,104.33 L100.67,104.33 Z" style="stroke-width: 1; stroke: rgb(255, 255, 255); stroke-opacity: 1; fill: rgb(0, 0, 0); fill-opacity: 1;"/><path class="real" d=" M152.33,52.67 L136.83,68.17 L100.67,68.17" style="stroke-width: 1; stroke: rgb(255, 255, 255); stroke-opacity: 1; fill: none; fill-opacity: 1;"/><path class="real" d=" M136.83,68.17 L136.83,104.33" style="stroke-width: 1; stroke: rgb(255, 255, 255); stroke-opacity: 1; fill: none; fill-opacity: 1;"/></g><g class="composite-shape"><path class="real" d=" M245.33,68.17 L260.83,52.67 L297,52.67 L297,88.83 L281.5,104.33 L245.33,104.33 Z" style="stroke-width: 1; stroke: rgb(255, 255, 255); stroke-opacity: 1; fill: rgb(0, 0, 0); fill-opacity: 1;"/><path class="real" d=" M297,52.67 L281.5,68.17 L245.33,68.17" style="stroke-width: 1; stroke: rgb(255, 255, 255); stroke-opacity: 1; fill: none; fill-opacity: 1;"/><path class="real" d=" M281.5,68.17 L281.5,104.33" style="stroke-width: 1; stroke: rgb(255, 255, 255); stroke-opacity: 1; fill: none; fill-opacity: 1;"/></g><g class="composite-shape"><path class="real" d=" M281.5,104.33 L297,88.83 L333.17,88.83 L333.17,125 L317.67,140.5 L281.5,140.5 Z" style="stroke-width: 1; stroke: rgb(255, 255, 255); stroke-opacity: 1; fill: rgb(126, 211, 33); fill-opacity: 1;"/><path class="real" d=" M333.17,88.83 L317.67,104.33 L281.5,104.33" style="stroke-width: 1; stroke: rgb(255, 255, 255); stroke-opacity: 1; fill: none; fill-opacity: 1;"/><path class="real" d=" M317.67,104.33 L317.67,140.5" style="stroke-width: 1; stroke: rgb(255, 255, 255); stroke-opacity: 1; fill: none; fill-opacity: 1;"/></g><g class="composite-shape"><path class="real" d=" M281.5,68.17 L297,52.67 L333.17,52.67 L333.17,88.83 L317.67,104.33 L281.5,104.33 Z" style="stroke-width: 1; stroke: rgb(255, 255, 255); stroke-opacity: 1; fill: rgb(126, 211, 33); fill-opacity: 1;"/><path class="real" d=" M333.17,52.67 L317.67,68.17 L281.5,68.17" style="stroke-width: 1; stroke: rgb(255, 255, 255); stroke-opacity: 1; fill: none; fill-opacity: 1;"/><path class="real" d=" M317.67,68.17 L317.67,104.33" style="stroke-width: 1; stroke: rgb(255, 255, 255); stroke-opacity: 1; fill: none; fill-opacity: 1;"/></g><g class="composite-shape"><path class="real" d=" M317.67,212.83 L333.17,197.33 L369.33,197.33 L369.33,233.5 L353.83,249 L317.67,249 Z" style="stroke-width: 1; stroke: rgb(255, 255, 255); stroke-opacity: 1; fill: rgb(126, 211, 33); fill-opacity: 1;"/><path class="real" d=" M369.33,197.33 L353.83,212.83 L317.67,212.83" style="stroke-width: 1; stroke: rgb(255, 255, 255); stroke-opacity: 1; fill: none; fill-opacity: 1;"/><path class="real" d=" M353.83,212.83 L353.83,249" style="stroke-width: 1; stroke: rgb(255, 255, 255); stroke-opacity: 1; fill: none; fill-opacity: 1;"/></g><g class="composite-shape"><path class="real" d=" M353.83,212.83 L369.33,197.33 L405.5,197.33 L405.5,233.5 L390,249 L353.83,249 Z" style="stroke-width: 1; stroke: rgb(255, 255, 255); stroke-opacity: 1; fill: rgb(126, 211, 33); fill-opacity: 1;"/><path class="real" d=" M405.5,197.33 L390,212.83 L353.83,212.83" style="stroke-width: 1; stroke: rgb(255, 255, 255); stroke-opacity: 1; fill: none; fill-opacity: 1;"/><path class="real" d=" M390,212.83 L390,249" style="stroke-width: 1; stroke: rgb(255, 255, 255); stroke-opacity: 1; fill: none; fill-opacity: 1;"/></g><g class="composite-shape"><path class="real" d=" M390.17,212.83 L405.67,197.33 L441.83,197.33 L441.83,233.5 L426.33,249 L390.17,249 Z" style="stroke-width: 1; stroke: rgb(255, 255, 255); stroke-opacity: 1; fill: rgb(126, 211, 33); fill-opacity: 1;"/><path class="real" d=" M441.83,197.33 L426.33,212.83 L390.17,212.83" style="stroke-width: 1; stroke: rgb(255, 255, 255); stroke-opacity: 1; fill: none; fill-opacity: 1;"/><path class="real" d=" M426.33,212.83 L426.33,249" style="stroke-width: 1; stroke: rgb(255, 255, 255); stroke-opacity: 1; fill: none; fill-opacity: 1;"/></g><g class="composite-shape"><path class="real" d=" M426.33,212.83 L441.83,197.33 L478,197.33 L478,233.5 L462.5,249 L426.33,249 Z" style="stroke-width: 1; stroke: rgb(255, 255, 255); stroke-opacity: 1; fill: rgb(126, 211, 33); fill-opacity: 1;"/><path class="real" d=" M478,197.33 L462.5,212.83 L426.33,212.83" style="stroke-width: 1; stroke: rgb(255, 255, 255); stroke-opacity: 1; fill: none; fill-opacity: 1;"/><path class="real" d=" M462.5,212.83 L462.5,249" style="stroke-width: 1; stroke: rgb(255, 255, 255); stroke-opacity: 1; fill: none; fill-opacity: 1;"/></g><g class="composite-shape"><path class="real" d=" M462.5,212.83 L478,197.33 L514.17,197.33 L514.17,233.5 L498.67,249 L462.5,249 Z" style="stroke-width: 1; stroke: rgb(255, 255, 255); stroke-opacity: 1; fill: rgb(126, 211, 33); fill-opacity: 1;"/><path class="real" d=" M514.17,197.33 L498.67,212.83 L462.5,212.83" style="stroke-width: 1; stroke: rgb(255, 255, 255); stroke-opacity: 1; fill: none; fill-opacity: 1;"/><path class="real" d=" M498.67,212.83 L498.67,249" style="stroke-width: 1; stroke: rgb(255, 255, 255); stroke-opacity: 1; fill: none; fill-opacity: 1;"/></g><g class="composite-shape"><path class="real" d=" M498.67,212.83 L514.17,197.33 L550.33,197.33 L550.33,233.5 L534.83,249 L498.67,249 Z" style="stroke-width: 1; stroke: rgb(255, 255, 255); stroke-opacity: 1; fill: rgb(126, 211, 33); fill-opacity: 1;"/><path class="real" d=" M550.33,197.33 L534.83,212.83 L498.67,212.83" style="stroke-width: 1; stroke: rgb(255, 255, 255); stroke-opacity: 1; fill: none; fill-opacity: 1;"/><path class="real" d=" M534.83,212.83 L534.83,249" style="stroke-width: 1; stroke: rgb(255, 255, 255); stroke-opacity: 1; fill: none; fill-opacity: 1;"/></g><g class="composite-shape"><path class="real" d=" M498.67,176.67 L514.17,161.17 L550.33,161.17 L550.33,197.33 L534.83,212.83 L498.67,212.83 Z" style="stroke-width: 1; stroke: rgb(255, 255, 255); stroke-opacity: 1; fill: rgb(126, 211, 33); fill-opacity: 1;"/><path class="real" d=" M550.33,161.17 L534.83,176.67 L498.67,176.67" style="stroke-width: 1; stroke: rgb(255, 255, 255); stroke-opacity: 1; fill: none; fill-opacity: 1;"/><path class="real" d=" M534.83,176.67 L534.83,212.83" style="stroke-width: 1; stroke: rgb(255, 255, 255); stroke-opacity: 1; fill: none; fill-opacity: 1;"/></g><g class="composite-shape"><path class="real" d=" M390.17,176.67 L405.67,161.17 L441.83,161.17 L441.83,197.33 L426.33,212.83 L390.17,212.83 Z" style="stroke-width: 1; stroke: rgb(255, 255, 255); stroke-opacity: 1; fill: rgb(126, 211, 33); fill-opacity: 1;"/><path class="real" d=" M441.83,161.17 L426.33,176.67 L390.17,176.67" style="stroke-width: 1; stroke: rgb(255, 255, 255); stroke-opacity: 1; fill: none; fill-opacity: 1;"/><path class="real" d=" M426.33,176.67 L426.33,212.83" style="stroke-width: 1; stroke: rgb(255, 255, 255); stroke-opacity: 1; fill: none; fill-opacity: 1;"/></g><g class="composite-shape"><path class="real" d=" M390.17,140.5 L405.67,125 L441.83,125 L441.83,161.17 L426.33,176.67 L390.17,176.67 Z" style="stroke-width: 1; stroke: rgb(255, 255, 255); stroke-opacity: 1; fill: rgb(126, 211, 33); fill-opacity: 1;"/><path class="real" d=" M441.83,125 L426.33,140.5 L390.17,140.5" style="stroke-width: 1; stroke: rgb(255, 255, 255); stroke-opacity: 1; fill: none; fill-opacity: 1;"/><path class="real" d=" M426.33,140.5 L426.33,176.67" style="stroke-width: 1; stroke: rgb(255, 255, 255); stroke-opacity: 1; fill: none; fill-opacity: 1;"/></g><g class="composite-shape"><path class="real" d=" M390.17,104.33 L405.67,88.83 L441.83,88.83 L441.83,125 L426.33,140.5 L390.17,140.5 Z" style="stroke-width: 1; stroke: rgb(255, 255, 255); stroke-opacity: 1; fill: rgb(126, 211, 33); fill-opacity: 1;"/><path class="real" d=" M441.83,88.83 L426.33,104.33 L390.17,104.33" style="stroke-width: 1; stroke: rgb(255, 255, 255); stroke-opacity: 1; fill: none; fill-opacity: 1;"/><path class="real" d=" M426.33,104.33 L426.33,140.5" style="stroke-width: 1; stroke: rgb(255, 255, 255); stroke-opacity: 1; fill: none; fill-opacity: 1;"/></g><g class="composite-shape"><path class="real" d=" M390.17,68.17 L405.67,52.67 L441.83,52.67 L441.83,88.83 L426.33,104.33 L390.17,104.33 Z" style="stroke-width: 1; stroke: rgb(255, 255, 255); stroke-opacity: 1; fill: rgb(126, 211, 33); fill-opacity: 1;"/><path class="real" d=" M441.83,52.67 L426.33,68.17 L390.17,68.17" style="stroke-width: 1; stroke: rgb(255, 255, 255); stroke-opacity: 1; fill: none; fill-opacity: 1;"/><path class="real" d=" M426.33,68.17 L426.33,104.33" style="stroke-width: 1; stroke: rgb(255, 255, 255); stroke-opacity: 1; fill: none; fill-opacity: 1;"/></g><g class="composite-shape"><path class="real" d=" M426.33,68.17 L441.83,52.67 L478,52.67 L478,88.83 L462.5,104.33 L426.33,104.33 Z" style="stroke-width: 1; stroke: rgb(255, 255, 255); stroke-opacity: 1; fill: rgb(126, 211, 33); fill-opacity: 1;"/><path class="real" d=" M478,52.67 L462.5,68.17 L426.33,68.17" style="stroke-width: 1; stroke: rgb(255, 255, 255); stroke-opacity: 1; fill: none; fill-opacity: 1;"/><path class="real" d=" M462.5,68.17 L462.5,104.33" style="stroke-width: 1; stroke: rgb(255, 255, 255); stroke-opacity: 1; fill: none; fill-opacity: 1;"/></g><g class="composite-shape"><path class="real" d=" M462.5,68.17 L478,52.67 L514.17,52.67 L514.17,88.83 L498.67,104.33 L462.5,104.33 Z" style="stroke-width: 1; stroke: rgb(255, 255, 255); stroke-opacity: 1; fill: rgb(126, 211, 33); fill-opacity: 1;"/><path class="real" d=" M514.17,52.67 L498.67,68.17 L462.5,68.17" style="stroke-width: 1; stroke: rgb(255, 255, 255); stroke-opacity: 1; fill: none; fill-opacity: 1;"/><path class="real" d=" M498.67,68.17 L498.67,104.33" style="stroke-width: 1; stroke: rgb(255, 255, 255); stroke-opacity: 1; fill: none; fill-opacity: 1;"/></g><g class="composite-shape"><path class="real" d=" M426.33,140.5 L441.83,125 L478,125 L478,161.17 L462.5,176.67 L426.33,176.67 Z" style="stroke-width: 1; stroke: rgb(255, 255, 255); stroke-opacity: 1; fill: rgb(126, 211, 33); fill-opacity: 1;"/><path class="real" d=" M478,125 L462.5,140.5 L426.33,140.5" style="stroke-width: 1; stroke: rgb(255, 255, 255); stroke-opacity: 1; fill: none; fill-opacity: 1;"/><path class="real" d=" M462.5,140.5 L462.5,176.67" style="stroke-width: 1; stroke: rgb(255, 255, 255); stroke-opacity: 1; fill: none; fill-opacity: 1;"/></g><g class="composite-shape"><path class="real" d=" M462.5,140.5 L478,125 L514.17,125 L514.17,161.17 L498.67,176.67 L462.5,176.67 Z" style="stroke-width: 1; stroke: rgb(255, 255, 255); stroke-opacity: 1; fill: rgb(126, 211, 33); fill-opacity: 1;"/><path class="real" d=" M514.17,125 L498.67,140.5 L462.5,140.5" style="stroke-width: 1; stroke: rgb(255, 255, 255); stroke-opacity: 1; fill: none; fill-opacity: 1;"/><path class="real" d=" M498.67,140.5 L498.67,176.67" style="stroke-width: 1; stroke: rgb(255, 255, 255); stroke-opacity: 1; fill: none; fill-opacity: 1;"/></g><g class="composite-shape"><path class="real" d=" M498.67,140.5 L514.17,125 L550.33,125 L550.33,161.17 L534.83,176.67 L498.67,176.67 Z" style="stroke-width: 1; stroke: rgb(255, 255, 255); stroke-opacity: 1; fill: rgb(126, 211, 33); fill-opacity: 1;"/><path class="real" d=" M550.33,125 L534.83,140.5 L498.67,140.5" style="stroke-width: 1; stroke: rgb(255, 255, 255); stroke-opacity: 1; fill: none; fill-opacity: 1;"/><path class="real" d=" M534.83,140.5 L534.83,176.67" style="stroke-width: 1; stroke: rgb(255, 255, 255); stroke-opacity: 1; fill: none; fill-opacity: 1;"/></g><g class="composite-shape"><path class="real" d=" M498.67,104.33 L514.17,88.83 L550.33,88.83 L550.33,125 L534.83,140.5 L498.67,140.5 Z" style="stroke-width: 1; stroke: rgb(255, 255, 255); stroke-opacity: 1; fill: rgb(126, 211, 33); fill-opacity: 1;"/><path class="real" d=" M550.33,88.83 L534.83,104.33 L498.67,104.33" style="stroke-width: 1; stroke: rgb(255, 255, 255); stroke-opacity: 1; fill: none; fill-opacity: 1;"/><path class="real" d=" M534.83,104.33 L534.83,140.5" style="stroke-width: 1; stroke: rgb(255, 255, 255); stroke-opacity: 1; fill: none; fill-opacity: 1;"/></g><g class="composite-shape"><path class="real" d=" M498.67,68.17 L514.17,52.67 L550.33,52.67 L550.33,88.83 L534.83,104.33 L498.67,104.33 Z" style="stroke-width: 1; stroke: rgb(255, 255, 255); stroke-opacity: 1; fill: rgb(126, 211, 33); fill-opacity: 1;"/><path class="real" d=" M550.33,52.67 L534.83,68.17 L498.67,68.17" style="stroke-width: 1; stroke: rgb(255, 255, 255); stroke-opacity: 1; fill: none; fill-opacity: 1;"/><path class="real" d=" M534.83,68.17 L534.83,104.33" style="stroke-width: 1; stroke: rgb(255, 255, 255); stroke-opacity: 1; fill: none; fill-opacity: 1;"/></g><g/></g><g/><g/><g/></svg>
        <svg xmlns="http://www.w3.org/2000/svg" xmlns:xlink="http://www.w3.org/1999/xlink" width="700" height="300" style="width:700px;height:300px;font-family:Asana-Math, Asana;background:transparent;"></svg>
</svg>
